<svg xmlns="http://www.w3.org/2000/svg" xmlns:xlink="http://www.w3.org/1999/xlink" width="500" zoomAndPan="magnify" viewBox="0 0 375 374.999991" height="500" preserveAspectRatio="xMidYMid meet" version="1.0"><defs><clipPath id="id1"><path d="M 126.9375 112.5 L 248.4375 112.5 L 248.4375 262.5 L 126.9375 262.5 Z M 126.9375 112.5 " clip-rule="nonzero"/></clipPath></defs><g clip-path="url(#id1)"><path fill="#100f0d" d="M 248.402344 123.027344 L 243.121094 123.027344 L 243.121094 112.5 L 248.402344 112.5 Z M 237.84375 123.027344 L 232.5625 123.027344 L 232.5625 112.5 L 237.84375 112.5 Z M 217.671875 161.070312 L 224.230469 163.601562 C 227.726562 165.089844 229.921875 168.410156 229.921875 172.101562 L 229.921875 230.921875 C 229.921875 233.101562 231.695312 234.867188 233.882812 234.867188 C 236.070312 234.867188 237.84375 233.101562 237.84375 230.921875 L 237.84375 157.238281 L 243.121094 157.238281 L 243.121094 230.921875 C 243.121094 236 238.976562 240.132812 233.882812 240.132812 C 228.789062 240.132812 224.644531 236 224.644531 230.921875 L 224.644531 172.101562 C 224.644531 170.519531 223.707031 169.097656 222.242188 168.472656 L 215.777344 165.972656 Z M 232.5625 141.449219 L 232.5625 128.289062 L 248.402344 128.289062 L 248.402344 141.449219 C 248.402344 145.804688 244.855469 149.34375 240.480469 149.34375 C 236.109375 149.34375 232.5625 145.804688 232.5625 141.449219 Z M 148.089844 125.65625 L 200.886719 125.65625 C 202.339844 125.65625 203.527344 126.839844 203.527344 128.289062 L 203.527344 159.867188 C 203.527344 161.316406 202.339844 162.5 200.886719 162.5 L 148.089844 162.5 C 146.636719 162.5 145.453125 161.316406 145.453125 159.867188 L 145.453125 128.289062 C 145.453125 126.839844 146.636719 125.65625 148.089844 125.65625 Z M 194.503906 204.113281 L 157.546875 230.425781 C 157.082031 230.757812 156.546875 230.921875 156.011719 230.921875 C 155.382812 230.921875 154.761719 230.695312 154.269531 230.261719 C 153.339844 229.449219 153.101562 228.113281 153.679688 227.046875 L 165.808594 204.605469 L 156.011719 204.605469 C 154.867188 204.605469 153.84375 203.863281 153.496094 202.777344 C 153.144531 201.6875 153.546875 200.492188 154.472656 199.835938 L 191.429688 173.519531 C 192.429688 172.800781 193.78125 172.871094 194.710938 173.683594 C 195.636719 174.496094 195.875 175.832031 195.296875 176.902344 L 183.171875 199.34375 L 192.96875 199.34375 C 194.113281 199.34375 195.132812 200.082031 195.484375 201.171875 C 195.832031 202.261719 195.429688 203.453125 194.503906 204.113281 Z M 137.53125 123.027344 L 137.53125 246.710938 L 211.445312 246.710938 L 211.445312 123.027344 C 211.445312 118.667969 207.898438 115.132812 203.527344 115.132812 L 145.453125 115.132812 C 141.078125 115.132812 137.53125 118.667969 137.53125 123.027344 Z M 222.003906 262.5 L 126.972656 262.5 L 126.972656 251.972656 L 222.003906 251.972656 Z M 178.746094 204.605469 L 184.726562 204.605469 L 163.722656 219.5625 L 172.550781 203.21875 C 172.984375 202.40625 172.960938 201.417969 172.488281 200.628906 C 172.015625 199.824219 171.148438 199.34375 170.230469 199.34375 L 164.25 199.34375 L 185.253906 184.386719 L 176.425781 200.730469 C 175.996094 201.542969 176.015625 202.527344 176.488281 203.320312 C 176.964844 204.121094 177.828125 204.605469 178.746094 204.605469 Z M 192.96875 151.972656 L 187.6875 151.972656 L 187.6875 146.710938 L 192.96875 146.710938 Z M 182.40625 151.972656 L 177.128906 151.972656 L 177.128906 146.710938 L 182.40625 146.710938 Z M 171.847656 151.972656 L 166.570312 151.972656 L 166.570312 146.710938 L 171.847656 146.710938 Z M 198.246094 130.921875 L 150.730469 130.921875 L 150.730469 157.238281 L 198.246094 157.238281 L 198.246094 130.921875 " fill-opacity="1" fill-rule="nonzero"/></g></svg>